<svg width="28" height="29" viewBox="0 0 28 29" fill="none" xmlns="http://www.w3.org/2000/svg">
<path d="M24.5 5.54412V23.4559C24.5 23.8654 24.3373 24.2582 24.0477 24.5477C23.7582 24.8373 23.3654 25 22.9559 25H5.04412C4.63459 25 4.24184 24.8373 3.95226 24.5477C3.66268 24.2582 3.5 23.8654 3.5 23.4559V5.54412C3.5 5.13459 3.66268 4.74184 3.95226 4.45226C4.24184 4.16268 4.63459 4 5.04412 4H22.9559C23.3654 4 23.7582 4.16268 24.0477 4.45226C24.3373 4.74184 24.5 5.13459 24.5 5.54412ZM9.67647 12.0294H6.58824V21.9118H9.67647V12.0294ZM9.95441 8.63235C9.95604 8.39875 9.91164 8.16712 9.82375 7.95068C9.73585 7.73424 9.60619 7.53723 9.44215 7.3709C9.27812 7.20458 9.08293 7.07219 8.86773 6.9813C8.65253 6.89041 8.42154 6.84279 8.18794 6.84118H8.13235C7.6573 6.84118 7.20171 7.02989 6.8658 7.3658C6.52989 7.70171 6.34118 8.1573 6.34118 8.63235C6.34118 9.1074 6.52989 9.56299 6.8658 9.89891C7.20171 10.2348 7.6573 10.4235 8.13235 10.4235C8.36597 10.4293 8.59843 10.3889 8.81645 10.3048C9.03447 10.2207 9.23378 10.0944 9.40298 9.93325C9.57219 9.77208 9.70798 9.57914 9.8026 9.36546C9.89722 9.15179 9.9488 8.92156 9.95441 8.68794V8.63235ZM21.4118 15.9082C21.4118 12.9374 19.5218 11.7824 17.6441 11.7824C17.0293 11.7516 16.4172 11.8825 15.8689 12.1621C15.3205 12.4417 14.855 12.8602 14.5188 13.3759H14.4324V12.0294H11.5294V21.9118H14.6176V16.6556C14.573 16.1173 14.7426 15.5831 15.0895 15.1691C15.4365 14.755 15.9328 14.4946 16.4706 14.4444H16.5879C17.57 14.4444 18.2988 15.0621 18.2988 16.6185V21.9118H21.3871L21.4118 15.9082Z" fill="#5700FF"/>
</svg>
