<svg width="28" height="29" viewBox="0 0 28 29" fill="none" xmlns="http://www.w3.org/2000/svg">
<path d="M23.278 9.73953C23.2923 9.94523 23.2923 10.1509 23.2923 10.3585C23.2923 16.6841 18.4768 23.9794 9.67143 23.9794V23.9756C7.07031 23.9794 4.52322 23.2343 2.3335 21.8294C2.71172 21.875 3.09184 21.8977 3.47291 21.8986C5.62851 21.9005 7.72249 21.1773 9.41834 19.8454C7.36986 19.8066 5.57353 18.4709 4.946 16.521C5.66358 16.6594 6.40297 16.631 7.10728 16.4386C4.87395 15.9873 3.26721 14.0251 3.26721 11.7463C3.26721 11.7254 3.26721 11.7055 3.26721 11.6856C3.93266 12.0563 4.67773 12.262 5.43987 12.2847C3.33641 10.8789 2.68802 8.08065 3.95825 5.89282C6.38875 8.88355 9.97477 10.7017 13.8243 10.8941C13.4385 9.23144 13.9656 7.48914 15.2093 6.32034C17.1373 4.5079 20.1698 4.60079 21.9822 6.52794C23.0543 6.31655 24.0819 5.92316 25.0222 5.36578C24.6649 6.47391 23.9169 7.4152 22.9178 8.01335C23.8667 7.90149 24.7938 7.64745 25.6668 7.25974C25.0241 8.22284 24.2146 9.06176 23.278 9.73953Z" fill="#5700FF"/>
</svg>
